# xmcd
#
# Track frame offsets:
#	150
#	11258
#	21758
#	33278
#	39961
#	48714
#	57984
#	66797
#	84017
#	96760
#
# Disc length: 1427 seconds
#
# Revision: 1
# Processed by: cddbd v1.5.2PL0 Copyright (c) Steve Scherf et al.
# Submitted via: audiograbber 1.83.01
#
DISCID=6d05910a
DTITLE=Roy Clark - Family Album
DYEAR=1974
DGENRE=Country
TTITLE0=Rollin' In My Sweet Baby's Arms
TTITLE1=Sweet Bunch Of Daises
TTITLE2=Jessie James
TTITLE3=Heel And Toe Polka
TTITLE4=Lonesome Road Blues
TTITLE5=Old Joe Clark
TTITLE6=Log Cabin In The Lane
TTITLE7=I'll Be All Smiles Tonight
TTITLE8=Jimmy Brown, The Newsboy
TTITLE9=Rubber Dolly
EXTD=
EXTT0=
EXTT1=
EXTT2=
EXTT3=
EXTT4=
EXTT5=
EXTT6=
EXTT7=
EXTT8=
EXTT9=
PLAYORDER=
